HIERARCHY
ROOT Hips
{
	OFFSET -7.666702 111.624649 -1.544528
	CHANNELS 6 Xposition Yposition Zposition Xrotation Yrotation Zrotation
	JOINT Chest
	{
		OFFSET 0.637789 13.502563 1.851560
		CHANNELS 3 Xrotation Yrotation Zrotation
		JOINT Chest2
		{
			OFFSET -0.221730 21.220276 2.952509
			CHANNELS 3 Xrotation Yrotation Zrotation
			JOINT Chest3
			{
				OFFSET 0.294033 14.880020 -1.148293
				CHANNELS 3 Xrotation Yrotation Zrotation
				JOINT Neck
				{
					OFFSET 0.177645 17.247070 1.059722
					CHANNELS 3 Xrotation Yrotation Zrotation
					JOINT Head
					{
						OFFSET 0.738442 10.453827 0.006914
						CHANNELS 3 Xrotation Yrotation Zrotation
						End Site
						{
							OFFSET 0.743916 10.453217 -0.065963
						}
					}
				}
				JOINT LeftCollar
				{
					OFFSET 4.312368 13.009979 3.734762
					CHANNELS 3 Xrotation Yrotation Zrotation
					JOINT LeftUpArm
					{
						OFFSET 14.983446 4.593384 -7.930732
						CHANNELS 3 Xrotation Yrotation Zrotation
						JOINT LeftLowArm
						{
							OFFSET 20.917681 24.754303 9.455272
							CHANNELS 3 Xrotation Yrotation Zrotation
							JOINT LeftHand
							{
								OFFSET 18.290833 23.328506 4.708778
								CHANNELS 3 Xrotation Yrotation Zrotation
								End Site
								{
									OFFSET 3.997581 5.098572 1.029131
								}
							}
						}
					}
				}
				JOINT RightCollar
				{
					OFFSET -4.103271 13.102158 3.647642
					CHANNELS 3 Xrotation Yrotation Zrotation
					JOINT RightUpArm
					{
						OFFSET -15.600416 -2.750427 -7.586730
						CHANNELS 3 Xrotation Yrotation Zrotation
						JOINT RightLowArm
						{
							OFFSET -27.915874 -18.984329 -0.183542
							CHANNELS 3 Xrotation Yrotation Zrotation
							JOINT RightHand
							{
								OFFSET -25.418259 -15.388214 4.250831
								CHANNELS 3 Xrotation Yrotation Zrotation
								End Site
								{
									OFFSET -5.555420 -3.363235 0.929064
								}
							}
						}
					}
				}
			}
		}
	}
	JOINT LeftUpLeg
	{
		OFFSET 9.817948 -0.720772 1.872837
		CHANNELS 3 Xrotation Yrotation Zrotation
		JOINT LeftLowLeg
		{
			OFFSET -6.670809 -45.347237 11.963182
			CHANNELS 3 Xrotation Yrotation Zrotation
			JOINT LeftFoot
			{
				OFFSET -7.581050 -43.473961 -7.287662
				CHANNELS 3 Xrotation Yrotation Zrotation
				JOINT LeftToe
				{
					OFFSET -1.777716 -20.191986 12.193560
					CHANNELS 3 Xrotation Yrotation Zrotation
					End Site
					{
						OFFSET 1.278472 -8.138134 22.174200
					}
				}
			}
		}
	}
	JOINT RightUpLeg
	{
		OFFSET -9.817961 0.720573 -1.872865
		CHANNELS 3 Xrotation Yrotation Zrotation
		JOINT RightLowLeg
		{
			OFFSET -2.017374 -46.388885 -9.381535
			CHANNELS 3 Xrotation Yrotation Zrotation
			JOINT RightFoot
			{
				OFFSET 9.792443 -37.799706 -21.814449
				CHANNELS 3 Xrotation Yrotation Zrotation
				JOINT RightToe
				{
					OFFSET 5.111049 -22.460302 5.382252
					CHANNELS 3 Xrotation Yrotation Zrotation
					End Site
					{
						OFFSET -2.118615 -15.479062 17.761368
					}
				}
			}
		}
	}
}
MOTION
Frames: 14
Frame Time: 0.033333
7.346589 96.845695 -4.623116 -6.407728 -6.348926 -22.806712 4.400342 0.304935 -5.366603 10.021756 -0.631776 3.542379 -5.775583 1.843754 6.843949 17.938706 -6.628774 13.368681 -0.000002 0.000004 -0.000000 5.612353 -3.696921 -23.077737 15.725433 15.899022 -95.964984 29.331585 -13.629072 7.857412 0.000001 0.000000 0.000004 3.426983 7.896850 20.737144 -15.391567 34.068956 20.405976 50.760388 74.235448 -128.567424 -0.000002 -0.000001 -0.000001 -4.063121 0.986450 23.934583 42.851862 5.853032 50.857852 -2.030237 -3.566137 -2.516254 -0.000003 -0.000001 -0.000003 -10.851912 -1.858583 13.244919 20.754751 4.385903 6.973115 -30.658312 -7.366578 -36.767646 -0.000001 -0.000001 0.000002 
7.337740 96.746490 -4.674367 -6.434693 -5.902781 -22.825724 5.240249 0.240636 -5.508265 10.639140 -0.426490 3.296791 -6.498892 1.824403 7.130968 17.798184 -6.616441 13.542132 -0.000000 -0.000001 -0.000000 5.444660 -3.658075 -22.987905 15.740229 16.173985 -96.173216 29.588479 -14.180528 7.613702 0.000002 0.000001 0.000006 3.365465 8.590122 20.745436 -15.383113 33.893963 20.304450 49.719594 74.128139 -127.820105 0.000001 -0.000000 -0.000001 -4.422347 0.843741 23.819842 43.003841 6.071077 51.301004 -2.053850 -3.877295 -2.737128 -0.000000 -0.000003 -0.000002 -11.397795 -1.853426 13.274966 21.346826 4.585291 7.423414 -30.965728 -7.579563 -37.299076 -0.000001 0.000000 -0.000001 
7.329082 96.650925 -4.717570 -6.517220 -5.570356 -22.801219 5.671770 0.202049 -5.639081 10.595234 -0.446240 3.362535 -6.583503 1.969717 7.150991 17.595798 -6.772214 13.992118 0.000001 0.000000 0.000000 5.620156 -4.109844 -22.884064 15.839011 15.872945 -96.359100 29.632868 -13.991930 7.739643 0.000000 0.000000 0.000002 3.407279 8.227615 20.820227 -15.404395 33.933240 20.619658 49.285843 74.661986 -126.623047 0.000001 -0.000001 -0.000001 -4.618389 0.802265 23.605458 42.912572 6.341402 51.840886 -2.556334 -4.050025 -2.865611 -0.000000 -0.000001 -0.000002 -11.320061 -1.854698 13.246365 21.545142 4.581877 7.632660 -30.963881 -7.769259 -37.537149 -0.000003 -0.000003 0.000004 
7.316097 96.550652 -4.765090 -6.612405 -5.526282 -22.905601 5.169128 0.237673 -5.524578 11.341635 -0.392800 3.344474 -7.100098 1.790741 7.093703 18.266335 -6.831268 13.973239 -0.000001 0.000002 0.000000 5.760769 -4.449929 -23.008244 15.873117 15.321595 -96.433699 29.446223 -13.368324 7.982702 0.000001 0.000000 0.000002 3.397360 7.526080 21.097785 -15.189576 33.743990 21.120263 52.390706 75.160037 -129.330752 -0.000003 -0.000001 -0.000002 -4.616574 0.887565 23.693839 43.020203 6.500354 51.968628 -2.953657 -3.791304 -2.657801 0.000003 -0.000001 -0.000002 -11.332780 -1.934420 13.330746 21.993925 4.535826 7.722663 -31.234226 -7.606773 -37.821869 0.000001 0.000001 -0.000001 
7.297895 96.446831 -4.812958 -6.410335 -5.679495 -22.843286 5.403348 0.252694 -5.720669 11.385789 -0.204057 2.905133 -7.262924 2.226916 7.491803 18.048261 -7.216170 14.248519 -0.000001 0.000001 0.000000 5.771108 -4.721575 -22.931148 15.760428 15.192376 -96.667210 29.642717 -13.588269 7.894547 0.000002 -0.000002 0.000005 3.345927 7.469473 21.135146 -15.608791 34.117584 21.150396 52.024936 74.533982 -129.581475 -0.000003 0.000000 -0.000001 -4.877938 0.920132 23.597697 43.052137 6.636120 52.076846 -2.896499 -3.566843 -2.472834 0.000003 -0.000001 -0.000003 -11.621984 -1.978804 13.210070 22.221329 4.494737 7.870518 -31.099409 -7.566122 -37.806446 -0.000002 -0.000001 -0.000001 
7.279265 96.352409 -4.857213 -6.523749 -5.462084 -22.900204 5.909558 0.196117 -5.729175 11.152359 -0.221944 2.951920 -7.097843 2.188420 7.410857 18.098973 -7.262261 14.358837 0.000000 -0.000001 0.000000 5.863892 -4.918213 -23.001232 15.827041 14.976631 -96.902257 29.410262 -13.280697 8.044810 -0.000000 -0.000003 0.000003 3.451037 8.007308 21.150121 -15.782928 34.389319 21.270271 50.245607 73.748237 -128.283206 0.000001 0.000001 -0.000006 -4.827655 0.887485 23.611527 43.146459 6.760205 52.223565 -3.296160 -3.654589 -2.521351 -0.000000 -0.000002 -0.000000 -11.446023 -1.986164 13.292357 22.295436 4.488488 7.912994 -31.033702 -7.678050 -37.795938 0.000002 0.000004 0.000000 
7.257162 96.251122 -4.911955 -6.096367 -5.407705 -22.839149 5.822435 0.164723 -5.687239 11.389305 -0.052914 2.697617 -7.268778 2.156591 7.520252 17.890506 -7.379780 14.660501 0.000003 -0.000001 0.000001 5.766518 -4.456642 -23.025647 15.755426 14.546963 -97.056046 29.020166 -13.233795 7.795727 0.000002 0.000002 0.000008 3.544612 8.430217 20.983393 -15.669690 34.342082 21.354414 49.950307 73.341779 -128.453032 0.000002 0.000001 -0.000003 -5.045866 0.804348 23.557686 42.947574 6.846856 52.392407 -3.479824 -3.644066 -2.463854 -0.000004 -0.000005 -0.000003 -11.555879 -1.971509 13.187359 22.110432 4.349088 8.114554 -30.923357 -7.881245 -37.943695 -0.000001 -0.000003 0.000002 
7.228183 96.154175 -4.959095 -5.948428 -5.416139 -22.792794 5.806957 0.158531 -5.697580 11.237464 -0.055112 2.694531 -7.127036 2.208181 7.455409 18.107243 -7.465593 14.791961 0.000001 0.000004 -0.000001 5.972796 -5.152157 -23.039925 15.395745 13.308885 -97.043451 29.733695 -13.714465 8.893311 0.000002 -0.000002 -0.000002 3.479927 8.018990 21.189876 -15.588227 34.065152 21.706814 53.437238 74.269025 -131.673575 -0.000001 0.000000 -0.000006 -5.562826 0.677388 23.551474 43.346214 7.040767 52.491558 -3.678018 -3.811523 -2.536010 0.000000 -0.000002 -0.000001 -12.228101 -1.992921 13.222403 22.707806 4.387312 8.259597 -30.872851 -8.166377 -38.663669 -0.000000 -0.000001 0.000002 
7.192224 96.062943 -4.999553 -6.388225 -5.186109 -22.760446 6.218512 0.136457 -5.751798 10.848191 -0.128180 2.740260 -6.965093 2.049262 7.402429 18.673628 -7.531389 14.732049 -0.000000 0.000002 -0.000000 5.940797 -5.268580 -23.175805 15.090171 12.552920 -96.827753 28.855794 -13.165246 8.458030 -0.000001 -0.000003 -0.000000 3.438617 7.983788 21.365573 -15.443934 33.707974 21.905223 55.667671 75.090717 -133.267673 -0.000001 0.000002 -0.000003 -5.423559 0.724416 23.509436 43.545174 7.206956 52.590233 -3.892126 -3.874388 -2.553006 0.000003 -0.000001 -0.000004 -12.055547 -1.997289 13.196973 23.047556 4.345738 8.482688 -31.205092 -8.146941 -39.379312 -0.000003 -0.000001 -0.000002 
7.147070 95.970306 -5.040391 -6.034651 -5.267197 -22.556831 6.208235 0.165075 -5.920463 10.930365 -0.034417 2.555039 -7.136678 1.784152 7.561532 18.592844 -7.586190 14.830941 -0.000002 0.000001 -0.000001 5.667879 -4.570829 -23.745815 15.203774 13.192232 -96.620286 29.162223 -13.420253 8.053893 -0.000001 -0.000000 0.000002 3.474331 8.182107 21.219096 -15.383159 33.331678 22.206816 57.836123 75.543320 -135.211012 0.000002 -0.000001 -0.000000 -5.947948 0.653708 23.418347 43.596964 7.277673 52.610608 -3.880924 -3.811528 -2.491300 -0.000002 -0.000003 -0.000004 -12.719815 -1.974271 13.046921 23.476707 4.462885 8.653099 -31.363050 -8.030394 -39.365669 -0.000004 0.000003 -0.000000 
7.091479 95.879082 -5.078120 -6.063947 -5.039652 -22.456866 6.318732 0.160858 -5.960566 10.954440 -0.164488 2.717196 -7.313292 1.825083 7.403968 18.774650 -7.955780 15.215155 0.000000 -0.000000 0.000000 5.913320 -5.172682 -23.796528 15.333636 13.346474 -97.068845 28.787874 -12.834861 8.029517 0.000000 0.000001 0.000006 3.480676 7.586800 21.212382 -15.548816 33.150921 22.682092 60.274493 76.621240 -136.457344 0.000003 0.000000 -0.000004 -6.043435 0.813751 23.285880 43.511611 7.378834 52.910771 -4.129946 -3.791995 -2.564729 -0.000000 -0.000001 0.000000 -12.631350 -2.065120 12.948171 23.456282 4.377586 8.830367 -31.236634 -7.986639 -39.430095 0.000002 -0.000002 -0.000003 
7.031018 95.788239 -5.119763 -6.298443 -4.845770 -22.265939 6.628483 0.146730 -6.106141 11.044075 -0.055367 2.496959 -7.414855 1.584292 7.590996 18.943690 -7.946771 15.053332 -0.000002 0.000003 -0.000002 5.810791 -4.758492 -23.934547 15.209071 13.002427 -96.964036 29.208679 -13.038144 8.202635 0.000001 -0.000000 -0.000001 3.519405 8.067868 21.251982 -15.594507 33.321884 22.537956 58.443190 75.979878 -135.087290 -0.000001 0.000000 -0.000002 -6.047140 0.800807 23.051801 43.503982 7.462999 53.186488 -4.497989 -3.836627 -2.612793 0.000001 -0.000003 -0.000005 -12.877349 -2.020848 12.732473 23.848961 4.433866 9.199975 -31.129332 -8.253527 -40.148405 0.000001 0.000000 -0.000001 
6.952247 95.696098 -5.157432 -5.894086 -4.674456 -22.146007 6.829552 0.143741 -6.267464 10.460967 -0.175857 2.614328 -6.966448 1.961026 7.636858 18.746426 -8.112113 15.204413 0.000000 -0.000000 0.000001 5.835552 -4.987599 -23.599321 15.060779 12.353902 -97.130317 28.859926 -12.695283 7.731239 -0.000001 -0.000000 0.000002 3.515222 7.887137 21.029819 -15.608755 33.377417 22.521926 57.398041 75.215997 -134.587211 0.000000 0.000001 0.000001 -6.575278 0.769475 23.003652 43.236685 7.735432 53.599722 -4.363659 -4.097424 -2.748937 0.000003 -0.000002 -0.000002 -13.611209 -2.070516 12.673111 24.316088 4.368388 9.554137 -31.301551 -8.347069 -40.844787 -0.000002 -0.000001 0.000000 
6.855992 95.599442 -5.192475 -5.778423 -4.723807 -21.923985 7.118068 0.129889 -6.464102 10.461295 -0.063122 2.448959 -7.101644 1.794901 7.742207 18.679734 -7.993231 15.250037 -0.000002 -0.000000 0.000000 5.893314 -4.780532 -23.423389 15.378656 12.617270 -97.364722 29.072048 -12.537700 7.405557 0.000001 -0.000002 0.000002 3.731478 8.670433 20.612169 -15.678783 33.681930 22.711795 54.262557 74.255692 -131.900187 -0.000001 -0.000001 -0.000006 -6.776721 0.723887 22.874239 43.193884 7.762056 53.832877 -4.227315 -4.188688 -2.831343 0.000002 -0.000004 0.000002 -14.165321 -2.049666 12.591641 25.088700 4.637930 9.745138 -31.709515 -8.278594 -41.073886 -0.000009 0.000000 0.000005 
